<?xml version="1.0" encoding="UTF-8" standalone="no"?>
<svg xmlns="http://www.w3.org/2000/svg" width="512" height="512" viewBox="0 0 512 512" fill="none">
  <rect width="512" height="512" fill="#1A1429"/>
  <path d="M256 128C256 128 300 180 344 180C388 180 432 128 432 128C432 128 388 76 344 76C300 76 256 128 256 128Z" fill="#B8C5B9"/>
  <path d="M80 128C80 128 124 180 168 180C212 180 256 128 256 128C256 128 212 76 168 76C124 76 80 128 80 128Z" fill="#B8C5B9"/>
  <path d="M256 384C256 384 300 332 344 332C388 332 432 384 432 384C432 384 388 436 344 436C300 436 256 384 256 384Z" fill="#B8C5B9"/>
  <path d="M80 384C80 384 124 332 168 332C212 332 256 384 256 384C256 384 212 436 168 436C124 436 80 384 80 384Z" fill="#B8C5B9"/>
  <path d="M256 128C256 128 256 180 256 256C256 332 256 384 256 384C256 384 212 332 168 332C124 332 80 384 80 384C80 384 80 332 80 256C80 180 80 128 80 128C80 128 124 180 168 180C212 180 256 128 256 128Z" fill="#B8C5B9"/>
  <path d="M256 128C256 128 256 180 256 256C256 332 256 384 256 384C256 384 300 332 344 332C388 332 432 384 432 384C432 384 432 332 432 256C432 180 432 128 432 128C432 128 388 180 344 180C300 180 256 128 256 128Z" fill="#B8C5B9"/>
</svg>